<svg xmlns="http://www.w3.org/2000/svg" xmlns:xlink="http://www.w3.org/1999/xlink" width="150" zoomAndPan="magnify" viewBox="0 0 112.5 50.999998" height="68" preserveAspectRatio="xMidYMid meet" version="1.0"><defs><g/><clipPath id="5ae5bc2c7d"><path d="M 0.394531 6.847656 L 24.855469 6.847656 L 24.855469 34.199219 L 0.394531 34.199219 Z M 0.394531 6.847656 " clip-rule="nonzero"/></clipPath><clipPath id="8403644671"><path d="M 32 0.308594 L 91.789062 0.308594 L 91.789062 21 L 32 21 Z M 32 0.308594 " clip-rule="nonzero"/></clipPath><clipPath id="a79007c013"><rect x="0" width="60" y="0" height="21"/></clipPath><clipPath id="6bd8c9162d"><rect x="0" width="44" y="0" height="22"/></clipPath><clipPath id="298dc9e827"><path d="M 28 43 L 91.789062 43 L 91.789062 48.574219 L 28 48.574219 Z M 28 43 " clip-rule="nonzero"/></clipPath><clipPath id="c99e7589b5"><path d="M 0.46875 0.078125 L 4 0.078125 L 4 5 L 0.46875 5 Z M 0.46875 0.078125 " clip-rule="nonzero"/></clipPath><clipPath id="0c53a3e4cb"><path d="M 12 0.078125 L 13 0.078125 L 13 4 L 12 4 Z M 12 0.078125 " clip-rule="nonzero"/></clipPath><clipPath id="9949da7ca3"><path d="M 24 0.078125 L 25 0.078125 L 25 4 L 24 4 Z M 24 0.078125 " clip-rule="nonzero"/></clipPath><clipPath id="21ceb9046a"><path d="M 28 0.078125 L 31 0.078125 L 31 4 L 28 4 Z M 28 0.078125 " clip-rule="nonzero"/></clipPath><clipPath id="0e84ab3624"><path d="M 44 0.078125 L 45 0.078125 L 45 4 L 44 4 Z M 44 0.078125 " clip-rule="nonzero"/></clipPath><clipPath id="e952c66196"><path d="M 45 0.078125 L 46 0.078125 L 46 4 L 45 4 Z M 45 0.078125 " clip-rule="nonzero"/></clipPath><clipPath id="517ab3eecb"><path d="M 55 0.078125 L 57 0.078125 L 57 4 L 55 4 Z M 55 0.078125 " clip-rule="nonzero"/></clipPath><clipPath id="26f0a3bb0c"><path d="M 61 1 L 63.789062 1 L 63.789062 4 L 61 4 Z M 61 1 " clip-rule="nonzero"/></clipPath><clipPath id="a52cab9505"><rect x="0" width="64" y="0" height="6"/></clipPath><clipPath id="b65d3cd772"><rect x="0" width="92" y="0" height="49"/></clipPath></defs><g transform="matrix(1, 0, 0, 1, 10, 1)"><g clip-path="url(#b65d3cd772)"><g clip-path="url(#5ae5bc2c7d)"><path fill="#5ca423" d="M 24.527344 18.058594 C 24.957031 20.074219 25.085938 22.050781 23.886719 23.34375 C 24.257812 23.703125 24.554688 24.226562 24.546875 25.019531 C 24.53125 27.222656 23.71875 29.8125 21.949219 30.640625 C 21.5625 30.820312 21.179688 30.820312 20.828125 30.726562 C 20.835938 31.207031 20.730469 31.652344 20.511719 32.085938 C 19.878906 33.328125 18.816406 34.097656 15.464844 34.097656 C 14.121094 34.097656 13.179688 33.792969 12.625 33.167969 C 12.070312 33.792969 11.128906 34.097656 9.789062 34.097656 C 5.90625 34.074219 4.632812 33.074219 4.425781 30.726562 C 1.839844 31.117188 0.71875 27.386719 0.703125 25.019531 C 0.699219 24.226562 0.992188 23.703125 1.363281 23.34375 C 0.164062 22.050781 0.296875 20.070312 0.722656 18.058594 C 0.835938 17.640625 1.132812 17.15625 1.578125 16.835938 C 0.734375 14.878906 1.585938 10.824219 4.691406 10.753906 C 5.039062 8.585938 6.101562 6.878906 9.789062 6.847656 C 11.25 6.847656 12.128906 7.398438 12.628906 8.054688 C 13.125 7.398438 14.003906 6.847656 15.464844 6.847656 C 18.460938 6.847656 19.320312 8.003906 19.832031 8.695312 C 20.21875 9.167969 20.46875 10.027344 20.5625 10.753906 C 20.785156 10.753906 21.027344 10.777344 21.277344 10.839844 C 23.882812 11.542969 24.417969 15.128906 23.675781 16.835938 C 24.121094 17.160156 24.417969 17.640625 24.53125 18.058594 Z M 22.71875 17.621094 C 22.316406 17.542969 22.136719 17.015625 22.40625 16.707031 C 22.71875 16.324219 22.832031 15.984375 22.84375 15.351562 C 22.925781 14.261719 22.207031 11.457031 20.175781 11.933594 C 18.558594 12.460938 18.019531 13.480469 17.703125 14.410156 C 17.605469 14.707031 17.28125 14.867188 16.984375 14.765625 C 16.6875 14.664062 16.527344 14.34375 16.628906 14.046875 C 16.957031 13.074219 17.605469 11.726562 19.449219 10.988281 C 19.199219 9.230469 18.453125 8 15.464844 7.984375 C 13.289062 7.984375 13.195312 9.515625 13.191406 9.691406 L 13.191406 12.902344 C 13.582031 12.289062 14.125 11.492188 15.421875 11.390625 C 15.734375 11.367188 16.007812 11.601562 16.03125 11.914062 C 16.054688 12.226562 15.820312 12.5 15.507812 12.523438 C 14.1875 12.609375 14.199219 14.027344 13.191406 14.601562 C 13.191406 14.601562 13.191406 20.242188 13.191406 20.242188 C 13.90625 19.789062 14.753906 19.667969 15.625 19.929688 C 16.339844 20.15625 16.019531 21.21875 15.300781 21.015625 C 14.910156 20.902344 13.949219 20.753906 13.191406 21.785156 L 13.191406 25.894531 C 13.460938 25.71875 13.820312 25.582031 14.328125 25.582031 C 15.074219 25.59375 15.074219 26.707031 14.328125 26.71875 C 13.667969 26.691406 13.589844 27.179688 13.191406 27.550781 C 13.191406 27.550781 13.191406 31.78125 13.191406 31.78125 C 13.265625 32.21875 13.453125 32.964844 15.464844 32.964844 C 19.3125 33.015625 20.136719 31.648438 19.476562 29.757812 C 19.378906 29.503906 19.476562 29.214844 19.710938 29.074219 C 19.945312 28.929688 20.246094 28.976562 20.429688 29.175781 C 22.148438 30.972656 23.496094 26.804688 23.414062 25.011719 C 23.417969 24.507812 23.242188 24.199219 22.78125 23.925781 C 22.121094 24.101562 21.40625 24.082031 20.449219 23.867188 C 19.722656 23.6875 19.96875 22.609375 20.699219 22.757812 C 22.175781 23.066406 23.066406 22.949219 23.460938 21.949219 C 23.695312 21.597656 24.042969 17.925781 22.71875 17.621094 Z M 9.785156 7.984375 C 6.800781 7.992188 6.046875 9.238281 5.800781 10.988281 C 7.640625 11.726562 8.289062 13.070312 8.621094 14.046875 C 8.847656 14.761719 7.796875 15.113281 7.546875 14.410156 C 7.230469 13.480469 6.691406 12.460938 5.074219 11.933594 C 3.0625 11.449219 2.3125 14.269531 2.40625 15.351562 C 2.417969 15.984375 2.527344 16.324219 2.84375 16.707031 C 3.113281 17.015625 2.933594 17.542969 2.53125 17.621094 C 1.203125 17.929688 1.558594 21.59375 1.789062 21.949219 C 2.183594 22.949219 3.074219 23.066406 4.550781 22.757812 C 5.285156 22.609375 5.527344 23.691406 4.800781 23.867188 C 3.84375 24.082031 3.128906 24.105469 2.464844 23.925781 C 2.007812 24.199219 1.832031 24.511719 1.835938 25.011719 C 1.851562 26.851562 2.523438 29.023438 3.78125 29.609375 C 4.214844 29.816406 4.816406 29.183594 4.820312 29.179688 C 5.226562 28.710938 6 29.1875 5.773438 29.757812 C 5.113281 31.660156 5.941406 33.015625 9.785156 32.964844 C 11.796875 32.964844 11.984375 32.21875 12.058594 31.78125 L 12.058594 27.550781 C 11.660156 27.179688 11.582031 26.691406 10.921875 26.71875 C 10.171875 26.703125 10.175781 25.597656 10.921875 25.585938 C 11.433594 25.585938 11.792969 25.71875 12.058594 25.894531 L 12.058594 21.789062 C 10.753906 20.082031 9.648438 21.683594 9.242188 20.636719 C 9.152344 20.335938 9.320312 20.019531 9.625 19.929688 C 10.496094 19.667969 11.34375 19.789062 12.058594 20.242188 L 12.058594 14.601562 C 11.050781 14.027344 11.0625 12.609375 9.742188 12.523438 C 9.429688 12.5 9.195312 12.226562 9.21875 11.914062 C 9.242188 11.601562 9.515625 11.367188 9.828125 11.394531 C 11.125 11.492188 11.667969 12.292969 12.058594 12.90625 L 12.058594 9.691406 C 12.054688 9.515625 11.960938 7.984375 9.785156 7.984375 Z M 9.785156 7.984375 " fill-opacity="1" fill-rule="nonzero"/></g><path fill="#5ca423" d="M 21.320312 20.445312 C 19.890625 20.910156 18.640625 20.511719 17.476562 19.324219 C 16.339844 19.246094 15.644531 18.992188 15.242188 18.503906 C 14.925781 18.121094 14.8125 17.609375 14.902344 16.984375 C 15.023438 16.25 16.117188 16.40625 16.027344 17.148438 C 15.960938 17.589844 16.078125 17.734375 16.117188 17.78125 C 16.285156 17.980469 16.691406 18.109375 17.335938 18.171875 C 17.800781 16.941406 18.648438 15.976562 19.75 15.421875 C 20.03125 15.28125 20.371094 15.394531 20.515625 15.675781 C 20.652344 15.957031 20.539062 16.296875 20.261719 16.4375 C 19.402344 16.867188 18.742188 17.636719 18.378906 18.621094 C 19.207031 19.425781 20.050781 19.667969 20.960938 19.367188 C 21.671875 19.140625 22.027344 20.195312 21.320312 20.445312 Z M 21.320312 20.445312 " fill-opacity="1" fill-rule="nonzero"/><path fill="#5ca423" d="M 16.511719 23.046875 C 16.507812 23.050781 16.109375 23.707031 16.441406 24.054688 C 17 24.640625 17.542969 24.757812 18.234375 24.90625 C 18.84375 25.035156 19.53125 25.1875 20.308594 25.667969 C 20.933594 26.074219 20.347656 27.015625 19.707031 26.632812 C 19.277344 26.371094 18.339844 25.96875 18.003906 26.082031 C 16.648438 26.808594 17.503906 29.804688 15.464844 30.125 C 14.835938 30.132812 14.679688 29.203125 15.292969 29.015625 C 15.679688 28.890625 15.800781 28.5 15.976562 27.636719 C 16.109375 26.996094 16.269531 26.238281 16.757812 25.652344 C 15.257812 24.984375 14.746094 23.726562 15.554688 22.4375 C 15.960938 21.820312 16.894531 22.40625 16.515625 23.042969 Z M 16.511719 23.046875 " fill-opacity="1" fill-rule="nonzero"/><path fill="#5ca423" d="M 9.222656 17.148438 C 9.128906 16.40625 10.230469 16.25 10.347656 16.984375 C 10.523438 18.640625 9.5625 19.1875 7.773438 19.324219 C 6.925781 20.195312 6.015625 20.636719 5.050781 20.636719 C 4.515625 20.613281 3.351562 20.550781 3.570312 19.726562 C 4.023438 18.667969 5.074219 20.414062 6.871094 18.625 C 6.0625 16.339844 4.324219 16.671875 4.734375 15.675781 C 4.875 15.398438 5.21875 15.28125 5.5 15.425781 C 6.601562 15.976562 7.449219 16.941406 7.914062 18.175781 C 8.8125 18.042969 9.347656 18.007812 9.222656 17.148438 Z M 9.222656 17.148438 " fill-opacity="1" fill-rule="nonzero"/><path fill="#5ca423" d="M 8.808594 24.054688 C 9.136719 23.710938 8.746094 23.058594 8.738281 23.046875 C 8.351562 22.410156 9.289062 21.816406 9.699219 22.441406 C 10.503906 23.722656 9.988281 24.996094 8.492188 25.652344 C 9.378906 26.554688 9.144531 28.789062 9.957031 29.015625 C 10.257812 29.113281 10.421875 29.429688 10.328125 29.730469 C 10.234375 30.03125 9.90625 30.191406 9.613281 30.097656 C 7.753906 29.558594 8.585938 26.8125 7.25 26.082031 C 6.910156 25.964844 5.976562 26.371094 5.546875 26.632812 C 4.910156 27.015625 4.316406 26.074219 4.945312 25.667969 C 6.382812 24.695312 7.660156 25.199219 8.808594 24.054688 Z M 8.808594 24.054688 " fill-opacity="1" fill-rule="nonzero"/><g clip-path="url(#8403644671)"><g transform="matrix(1, 0, 0, 1, 32, 0.000000000000000444)"><g clip-path="url(#a79007c013)"><g fill="#5ca423" fill-opacity="1"><g transform="translate(0.858636, 15.437668)"><g><path d="M 7.1875 -10.703125 C 7.707031 -10.703125 8.238281 -10.660156 8.78125 -10.578125 C 9.332031 -10.492188 9.769531 -10.382812 10.09375 -10.25 C 10.195312 -10.21875 10.257812 -10.175781 10.28125 -10.125 C 10.3125 -10.070312 10.332031 -9.984375 10.34375 -9.859375 L 10.5625 -7.515625 C 10.5625 -7.484375 10.535156 -7.460938 10.484375 -7.453125 C 10.429688 -7.441406 10.390625 -7.457031 10.359375 -7.5 C 10.046875 -8.425781 9.597656 -9.128906 9.015625 -9.609375 C 8.429688 -10.097656 7.734375 -10.34375 6.921875 -10.34375 C 6.148438 -10.34375 5.460938 -10.140625 4.859375 -9.734375 C 4.265625 -9.328125 3.796875 -8.738281 3.453125 -7.96875 C 3.109375 -7.207031 2.9375 -6.316406 2.9375 -5.296875 C 2.9375 -4.265625 3.113281 -3.359375 3.46875 -2.578125 C 3.820312 -1.796875 4.3125 -1.195312 4.9375 -0.78125 C 5.5625 -0.363281 6.273438 -0.15625 7.078125 -0.15625 C 7.859375 -0.15625 8.507812 -0.363281 9.03125 -0.78125 C 9.5625 -1.195312 10.0625 -1.890625 10.53125 -2.859375 C 10.539062 -2.890625 10.570312 -2.898438 10.625 -2.890625 C 10.6875 -2.878906 10.71875 -2.859375 10.71875 -2.828125 L 10.46875 -0.734375 C 10.445312 -0.597656 10.421875 -0.507812 10.390625 -0.46875 C 10.367188 -0.4375 10.3125 -0.398438 10.21875 -0.359375 C 9.1875 0.015625 8.140625 0.203125 7.078125 0.203125 C 5.878906 0.203125 4.804688 -0.0195312 3.859375 -0.46875 C 2.910156 -0.925781 2.164062 -1.566406 1.625 -2.390625 C 1.09375 -3.210938 0.828125 -4.144531 0.828125 -5.1875 C 0.828125 -6.25 1.101562 -7.195312 1.65625 -8.03125 C 2.207031 -8.875 2.96875 -9.53125 3.9375 -10 C 4.914062 -10.46875 6 -10.703125 7.1875 -10.703125 Z M 7.1875 -10.703125 "/></g></g></g><g fill="#5ca423" fill-opacity="1"><g transform="translate(12.315564, 15.437668)"><g><path d="M 5.03125 -6.65625 C 5.289062 -6.65625 5.539062 -6.5625 5.78125 -6.375 C 6.019531 -6.195312 6.140625 -5.976562 6.140625 -5.71875 C 6.140625 -5.488281 6.066406 -5.296875 5.921875 -5.140625 C 5.773438 -4.984375 5.582031 -4.90625 5.34375 -4.90625 C 5.175781 -4.90625 5.039062 -4.9375 4.9375 -5 C 4.832031 -5.070312 4.722656 -5.175781 4.609375 -5.3125 C 4.503906 -5.425781 4.414062 -5.507812 4.34375 -5.5625 C 4.269531 -5.613281 4.1875 -5.640625 4.09375 -5.640625 C 3.976562 -5.640625 3.851562 -5.597656 3.71875 -5.515625 C 3.59375 -5.429688 3.394531 -5.253906 3.125 -4.984375 L 3.125 -1.359375 C 3.125 -0.910156 3.226562 -0.601562 3.4375 -0.4375 C 3.65625 -0.28125 4.050781 -0.203125 4.625 -0.203125 C 4.664062 -0.203125 4.6875 -0.164062 4.6875 -0.09375 C 4.6875 -0.03125 4.664062 0 4.625 0 C 4.226562 0 3.921875 -0.00390625 3.703125 -0.015625 L 2.34375 -0.03125 L 1.34375 -0.015625 C 1.175781 -0.00390625 0.945312 0 0.65625 0 C 0.625 0 0.609375 -0.03125 0.609375 -0.09375 C 0.609375 -0.164062 0.625 -0.203125 0.65625 -0.203125 C 1 -0.203125 1.234375 -0.28125 1.359375 -0.4375 C 1.484375 -0.601562 1.546875 -0.910156 1.546875 -1.359375 L 1.546875 -4.53125 C 1.546875 -4.875 1.503906 -5.125 1.421875 -5.28125 C 1.335938 -5.445312 1.207031 -5.53125 1.03125 -5.53125 C 0.832031 -5.53125 0.5625 -5.453125 0.21875 -5.296875 L 0.1875 -5.296875 C 0.15625 -5.296875 0.128906 -5.320312 0.109375 -5.375 C 0.0859375 -5.4375 0.09375 -5.472656 0.125 -5.484375 L 2.453125 -6.625 C 2.523438 -6.644531 2.566406 -6.65625 2.578125 -6.65625 C 2.703125 -6.65625 2.816406 -6.539062 2.921875 -6.3125 C 3.023438 -6.082031 3.085938 -5.773438 3.109375 -5.390625 C 3.566406 -5.859375 3.941406 -6.1875 4.234375 -6.375 C 4.535156 -6.5625 4.800781 -6.65625 5.03125 -6.65625 Z M 5.03125 -6.65625 "/></g></g></g><g fill="#5ca423" fill-opacity="1"><g transform="translate(18.69174, 15.437668)"><g><path d="M 6.53125 -1.109375 C 6.550781 -1.109375 6.570312 -1.082031 6.59375 -1.03125 C 6.625 -0.988281 6.628906 -0.957031 6.609375 -0.9375 C 6.191406 -0.539062 5.769531 -0.25 5.34375 -0.0625 C 4.925781 0.113281 4.460938 0.203125 3.953125 0.203125 C 3.242188 0.203125 2.628906 0.0546875 2.109375 -0.234375 C 1.597656 -0.535156 1.207031 -0.9375 0.9375 -1.4375 C 0.664062 -1.9375 0.53125 -2.476562 0.53125 -3.0625 C 0.53125 -3.707031 0.691406 -4.304688 1.015625 -4.859375 C 1.347656 -5.410156 1.800781 -5.84375 2.375 -6.15625 C 2.957031 -6.476562 3.613281 -6.640625 4.34375 -6.640625 C 5.039062 -6.640625 5.578125 -6.484375 5.953125 -6.171875 C 6.335938 -5.859375 6.53125 -5.375 6.53125 -4.71875 C 6.53125 -4.363281 6.46875 -4.1875 6.34375 -4.1875 L 2.25 -4.171875 C 2.238281 -4.097656 2.234375 -3.96875 2.234375 -3.78125 C 2.234375 -2.800781 2.457031 -2.03125 2.90625 -1.46875 C 3.363281 -0.90625 4.019531 -0.625 4.875 -0.625 C 5.175781 -0.625 5.429688 -0.65625 5.640625 -0.71875 C 5.859375 -0.789062 6.144531 -0.914062 6.5 -1.09375 Z M 3.703125 -6.3125 C 3.328125 -6.3125 3.015625 -6.148438 2.765625 -5.828125 C 2.523438 -5.503906 2.363281 -5.066406 2.28125 -4.515625 L 4.734375 -4.546875 C 4.722656 -5.117188 4.632812 -5.554688 4.46875 -5.859375 C 4.3125 -6.160156 4.054688 -6.3125 3.703125 -6.3125 Z M 3.703125 -6.3125 "/></g></g></g><g fill="#5ca423" fill-opacity="1"><g transform="translate(25.724042, 15.437668)"><g><path d="M 1.984375 -5.6875 C 1.984375 -5.363281 2.097656 -5.082031 2.328125 -4.84375 C 2.554688 -4.613281 2.890625 -4.367188 3.328125 -4.109375 C 3.753906 -3.859375 4.070312 -3.660156 4.28125 -3.515625 C 4.488281 -3.378906 4.675781 -3.1875 4.84375 -2.9375 C 5.007812 -2.6875 5.09375 -2.378906 5.09375 -2.015625 C 5.09375 -1.640625 5 -1.28125 4.8125 -0.9375 C 4.625 -0.601562 4.335938 -0.332031 3.953125 -0.125 C 3.566406 0.0820312 3.113281 0.1875 2.59375 0.1875 C 1.976562 0.1875 1.394531 0.0351562 0.84375 -0.265625 C 0.769531 -0.335938 0.734375 -0.40625 0.734375 -0.46875 L 0.703125 -2.140625 C 0.703125 -2.171875 0.734375 -2.1875 0.796875 -2.1875 C 0.859375 -2.195312 0.894531 -2.191406 0.90625 -2.171875 C 1.082031 -1.609375 1.378906 -1.128906 1.796875 -0.734375 C 2.210938 -0.347656 2.632812 -0.15625 3.0625 -0.15625 C 3.300781 -0.15625 3.488281 -0.226562 3.625 -0.375 C 3.769531 -0.519531 3.84375 -0.734375 3.84375 -1.015625 C 3.84375 -1.421875 3.722656 -1.742188 3.484375 -1.984375 C 3.242188 -2.234375 2.894531 -2.488281 2.4375 -2.75 C 2.039062 -2.957031 1.742188 -3.128906 1.546875 -3.265625 C 1.347656 -3.398438 1.171875 -3.585938 1.015625 -3.828125 C 0.859375 -4.078125 0.78125 -4.382812 0.78125 -4.75 C 0.78125 -5.40625 1.015625 -5.882812 1.484375 -6.1875 C 1.953125 -6.5 2.53125 -6.65625 3.21875 -6.65625 C 3.46875 -6.65625 3.695312 -6.640625 3.90625 -6.609375 C 4.113281 -6.578125 4.347656 -6.507812 4.609375 -6.40625 C 4.710938 -6.375 4.765625 -6.3125 4.765625 -6.21875 C 4.765625 -5.945312 4.757812 -5.726562 4.75 -5.5625 L 4.734375 -4.734375 C 4.734375 -4.691406 4.695312 -4.671875 4.625 -4.671875 C 4.5625 -4.671875 4.53125 -4.691406 4.53125 -4.734375 C 4.53125 -4.941406 4.4375 -5.171875 4.25 -5.421875 C 4.070312 -5.679688 3.835938 -5.898438 3.546875 -6.078125 C 3.265625 -6.253906 2.972656 -6.34375 2.671875 -6.34375 C 2.210938 -6.34375 1.984375 -6.125 1.984375 -5.6875 Z M 1.984375 -5.6875 "/></g></g></g><g fill="#5ca423" fill-opacity="1"><g transform="translate(31.393619, 15.437668)"><g><path d="M 3.9375 0.203125 C 3.195312 0.203125 2.570312 0.046875 2.0625 -0.265625 C 1.550781 -0.585938 1.164062 -1.003906 0.90625 -1.515625 C 0.65625 -2.023438 0.53125 -2.5625 0.53125 -3.125 C 0.53125 -3.832031 0.726562 -4.453125 1.125 -4.984375 C 1.519531 -5.515625 2.019531 -5.921875 2.625 -6.203125 C 3.238281 -6.492188 3.867188 -6.640625 4.515625 -6.640625 C 5.046875 -6.640625 5.523438 -6.523438 5.953125 -6.296875 C 6.390625 -6.078125 6.609375 -5.773438 6.609375 -5.390625 C 6.609375 -5.171875 6.523438 -4.984375 6.359375 -4.828125 C 6.203125 -4.679688 5.976562 -4.609375 5.6875 -4.609375 C 5.414062 -4.609375 5.203125 -4.675781 5.046875 -4.8125 C 4.890625 -4.957031 4.757812 -5.175781 4.65625 -5.46875 C 4.5625 -5.78125 4.460938 -5.992188 4.359375 -6.109375 C 4.265625 -6.234375 4.097656 -6.296875 3.859375 -6.296875 C 3.367188 -6.296875 2.976562 -6.054688 2.6875 -5.578125 C 2.40625 -5.097656 2.265625 -4.46875 2.265625 -3.6875 C 2.265625 -2.75 2.472656 -2.003906 2.890625 -1.453125 C 3.304688 -0.898438 3.96875 -0.625 4.875 -0.625 C 5.175781 -0.625 5.4375 -0.65625 5.65625 -0.71875 C 5.875 -0.789062 6.15625 -0.90625 6.5 -1.0625 L 6.515625 -1.0625 C 6.546875 -1.0625 6.570312 -1.039062 6.59375 -1 C 6.625 -0.96875 6.628906 -0.941406 6.609375 -0.921875 C 6.191406 -0.546875 5.773438 -0.265625 5.359375 -0.078125 C 4.953125 0.109375 4.476562 0.203125 3.9375 0.203125 Z M 3.9375 0.203125 "/></g></g></g><g fill="#5ca423" fill-opacity="1"><g transform="translate(38.543683, 15.437668)"><g><path d="M 6.53125 -1.109375 C 6.550781 -1.109375 6.570312 -1.082031 6.59375 -1.03125 C 6.625 -0.988281 6.628906 -0.957031 6.609375 -0.9375 C 6.191406 -0.539062 5.769531 -0.25 5.34375 -0.0625 C 4.925781 0.113281 4.460938 0.203125 3.953125 0.203125 C 3.242188 0.203125 2.628906 0.0546875 2.109375 -0.234375 C 1.597656 -0.535156 1.207031 -0.9375 0.9375 -1.4375 C 0.664062 -1.9375 0.53125 -2.476562 0.53125 -3.0625 C 0.53125 -3.707031 0.691406 -4.304688 1.015625 -4.859375 C 1.347656 -5.410156 1.800781 -5.84375 2.375 -6.15625 C 2.957031 -6.476562 3.613281 -6.640625 4.34375 -6.640625 C 5.039062 -6.640625 5.578125 -6.484375 5.953125 -6.171875 C 6.335938 -5.859375 6.53125 -5.375 6.53125 -4.71875 C 6.53125 -4.363281 6.46875 -4.1875 6.34375 -4.1875 L 2.25 -4.171875 C 2.238281 -4.097656 2.234375 -3.96875 2.234375 -3.78125 C 2.234375 -2.800781 2.457031 -2.03125 2.90625 -1.46875 C 3.363281 -0.90625 4.019531 -0.625 4.875 -0.625 C 5.175781 -0.625 5.429688 -0.65625 5.640625 -0.71875 C 5.859375 -0.789062 6.144531 -0.914062 6.5 -1.09375 Z M 3.703125 -6.3125 C 3.328125 -6.3125 3.015625 -6.148438 2.765625 -5.828125 C 2.523438 -5.503906 2.363281 -5.066406 2.28125 -4.515625 L 4.734375 -4.546875 C 4.722656 -5.117188 4.632812 -5.554688 4.46875 -5.859375 C 4.3125 -6.160156 4.054688 -6.3125 3.703125 -6.3125 Z M 3.703125 -6.3125 "/></g></g></g><g fill="#5ca423" fill-opacity="1"><g transform="translate(45.575986, 15.437668)"><g><path d="M 5.03125 -6.65625 C 5.289062 -6.65625 5.539062 -6.5625 5.78125 -6.375 C 6.019531 -6.195312 6.140625 -5.976562 6.140625 -5.71875 C 6.140625 -5.488281 6.066406 -5.296875 5.921875 -5.140625 C 5.773438 -4.984375 5.582031 -4.90625 5.34375 -4.90625 C 5.175781 -4.90625 5.039062 -4.9375 4.9375 -5 C 4.832031 -5.070312 4.722656 -5.175781 4.609375 -5.3125 C 4.503906 -5.425781 4.414062 -5.507812 4.34375 -5.5625 C 4.269531 -5.613281 4.1875 -5.640625 4.09375 -5.640625 C 3.976562 -5.640625 3.851562 -5.597656 3.71875 -5.515625 C 3.59375 -5.429688 3.394531 -5.253906 3.125 -4.984375 L 3.125 -1.359375 C 3.125 -0.910156 3.226562 -0.601562 3.4375 -0.4375 C 3.65625 -0.28125 4.050781 -0.203125 4.625 -0.203125 C 4.664062 -0.203125 4.6875 -0.164062 4.6875 -0.09375 C 4.6875 -0.03125 4.664062 0 4.625 0 C 4.226562 0 3.921875 -0.00390625 3.703125 -0.015625 L 2.34375 -0.03125 L 1.34375 -0.015625 C 1.175781 -0.00390625 0.945312 0 0.65625 0 C 0.625 0 0.609375 -0.03125 0.609375 -0.09375 C 0.609375 -0.164062 0.625 -0.203125 0.65625 -0.203125 C 1 -0.203125 1.234375 -0.28125 1.359375 -0.4375 C 1.484375 -0.601562 1.546875 -0.910156 1.546875 -1.359375 L 1.546875 -4.53125 C 1.546875 -4.875 1.503906 -5.125 1.421875 -5.28125 C 1.335938 -5.445312 1.207031 -5.53125 1.03125 -5.53125 C 0.832031 -5.53125 0.5625 -5.453125 0.21875 -5.296875 L 0.1875 -5.296875 C 0.15625 -5.296875 0.128906 -5.320312 0.109375 -5.375 C 0.0859375 -5.4375 0.09375 -5.472656 0.125 -5.484375 L 2.453125 -6.625 C 2.523438 -6.644531 2.566406 -6.65625 2.578125 -6.65625 C 2.703125 -6.65625 2.816406 -6.539062 2.921875 -6.3125 C 3.023438 -6.082031 3.085938 -5.773438 3.109375 -5.390625 C 3.566406 -5.859375 3.941406 -6.1875 4.234375 -6.375 C 4.535156 -6.5625 4.800781 -6.65625 5.03125 -6.65625 Z M 5.03125 -6.65625 "/></g></g></g><g fill="#5ca423" fill-opacity="1"><g transform="translate(51.952162, 15.437668)"><g><path d="M 6.53125 -1.109375 C 6.550781 -1.109375 6.570312 -1.082031 6.59375 -1.03125 C 6.625 -0.988281 6.628906 -0.957031 6.609375 -0.9375 C 6.191406 -0.539062 5.769531 -0.25 5.34375 -0.0625 C 4.925781 0.113281 4.460938 0.203125 3.953125 0.203125 C 3.242188 0.203125 2.628906 0.0546875 2.109375 -0.234375 C 1.597656 -0.535156 1.207031 -0.9375 0.9375 -1.4375 C 0.664062 -1.9375 0.53125 -2.476562 0.53125 -3.0625 C 0.53125 -3.707031 0.691406 -4.304688 1.015625 -4.859375 C 1.347656 -5.410156 1.800781 -5.84375 2.375 -6.15625 C 2.957031 -6.476562 3.613281 -6.640625 4.34375 -6.640625 C 5.039062 -6.640625 5.578125 -6.484375 5.953125 -6.171875 C 6.335938 -5.859375 6.53125 -5.375 6.53125 -4.71875 C 6.53125 -4.363281 6.46875 -4.1875 6.34375 -4.1875 L 2.25 -4.171875 C 2.238281 -4.097656 2.234375 -3.96875 2.234375 -3.78125 C 2.234375 -2.800781 2.457031 -2.03125 2.90625 -1.46875 C 3.363281 -0.90625 4.019531 -0.625 4.875 -0.625 C 5.175781 -0.625 5.429688 -0.65625 5.640625 -0.71875 C 5.859375 -0.789062 6.144531 -0.914062 6.5 -1.09375 Z M 3.703125 -6.3125 C 3.328125 -6.3125 3.015625 -6.148438 2.765625 -5.828125 C 2.523438 -5.503906 2.363281 -5.066406 2.28125 -4.515625 L 4.734375 -4.546875 C 4.722656 -5.117188 4.632812 -5.554688 4.46875 -5.859375 C 4.3125 -6.160156 4.054688 -6.3125 3.703125 -6.3125 Z M 3.703125 -6.3125 "/></g></g></g></g></g></g><g transform="matrix(1, 0, 0, 1, 31, 18)"><g clip-path="url(#6bd8c9162d)"><g fill="#0a4827" fill-opacity="1"><g transform="translate(1.163734, 15.636557)"><g><path d="M 14.015625 -0.203125 C 14.035156 -0.203125 14.046875 -0.164062 14.046875 -0.09375 C 14.046875 -0.03125 14.035156 0 14.015625 0 C 13.640625 0 13.335938 -0.00390625 13.109375 -0.015625 L 11.859375 -0.03125 L 10.609375 -0.015625 C 10.390625 -0.00390625 10.097656 0 9.734375 0 C 9.691406 0 9.671875 -0.03125 9.671875 -0.09375 C 9.671875 -0.164062 9.691406 -0.203125 9.734375 -0.203125 C 10.203125 -0.203125 10.519531 -0.253906 10.6875 -0.359375 C 10.851562 -0.472656 10.9375 -0.710938 10.9375 -1.078125 L 10.921875 -1.359375 L 10.5625 -8.25 L 7.09375 -0.125 C 7.070312 -0.0703125 7.03125 -0.046875 6.96875 -0.046875 C 6.894531 -0.046875 6.847656 -0.0703125 6.828125 -0.125 L 2.578125 -8.21875 L 2.4375 -2.140625 C 2.425781 -1.535156 2.546875 -1.0625 2.796875 -0.71875 C 3.054688 -0.375 3.414062 -0.203125 3.875 -0.203125 C 3.90625 -0.203125 3.921875 -0.164062 3.921875 -0.09375 C 3.921875 -0.03125 3.90625 0 3.875 0 C 3.570312 0 3.332031 -0.00390625 3.15625 -0.015625 L 2.234375 -0.03125 L 1.171875 -0.015625 C 0.992188 -0.00390625 0.753906 0 0.453125 0 C 0.421875 0 0.40625 -0.03125 0.40625 -0.09375 C 0.40625 -0.164062 0.421875 -0.203125 0.453125 -0.203125 C 0.910156 -0.203125 1.273438 -0.375 1.546875 -0.71875 C 1.816406 -1.070312 1.957031 -1.546875 1.96875 -2.140625 L 2.125 -9.109375 L 2.109375 -9.125 C 1.878906 -9.539062 1.644531 -9.84375 1.40625 -10.03125 C 1.164062 -10.21875 0.890625 -10.3125 0.578125 -10.3125 C 0.535156 -10.3125 0.515625 -10.34375 0.515625 -10.40625 C 0.515625 -10.476562 0.535156 -10.515625 0.578125 -10.515625 L 1.359375 -10.5 C 1.515625 -10.488281 1.71875 -10.484375 1.96875 -10.484375 L 2.859375 -10.5 C 2.960938 -10.507812 3.09375 -10.515625 3.25 -10.515625 C 3.394531 -10.515625 3.503906 -10.460938 3.578125 -10.359375 C 3.660156 -10.265625 3.804688 -10.023438 4.015625 -9.640625 L 7.6875 -2.765625 L 10.890625 -10.09375 C 10.953125 -10.25 11.019531 -10.359375 11.09375 -10.421875 C 11.164062 -10.484375 11.265625 -10.515625 11.390625 -10.515625 C 11.492188 -10.515625 11.609375 -10.507812 11.734375 -10.5 C 11.867188 -10.488281 12.019531 -10.484375 12.1875 -10.484375 L 13.171875 -10.5 C 13.328125 -10.507812 13.550781 -10.515625 13.84375 -10.515625 C 13.882812 -10.515625 13.90625 -10.476562 13.90625 -10.40625 C 13.90625 -10.34375 13.882812 -10.3125 13.84375 -10.3125 C 13.320312 -10.3125 12.941406 -10.203125 12.703125 -9.984375 C 12.472656 -9.773438 12.367188 -9.445312 12.390625 -9 L 12.796875 -1.359375 C 12.816406 -1.015625 12.859375 -0.765625 12.921875 -0.609375 C 12.984375 -0.453125 13.09375 -0.34375 13.25 -0.28125 C 13.414062 -0.226562 13.671875 -0.203125 14.015625 -0.203125 Z M 14.015625 -0.203125 "/></g></g></g><g fill="#0a4827" fill-opacity="1"><g transform="translate(15.581627, 15.636557)"><g><path d="M 2.265625 -8.328125 C 1.941406 -8.328125 1.691406 -8.414062 1.515625 -8.59375 C 1.335938 -8.78125 1.25 -9.035156 1.25 -9.359375 C 1.25 -9.648438 1.335938 -9.878906 1.515625 -10.046875 C 1.703125 -10.222656 1.953125 -10.3125 2.265625 -10.3125 C 2.585938 -10.3125 2.832031 -10.226562 3 -10.0625 C 3.164062 -9.894531 3.25 -9.660156 3.25 -9.359375 C 3.25 -9.035156 3.164062 -8.78125 3 -8.59375 C 2.832031 -8.414062 2.585938 -8.328125 2.265625 -8.328125 Z M 0.65625 0 C 0.625 0 0.609375 -0.03125 0.609375 -0.09375 C 0.609375 -0.164062 0.625 -0.203125 0.65625 -0.203125 C 1 -0.203125 1.234375 -0.28125 1.359375 -0.4375 C 1.484375 -0.601562 1.546875 -0.910156 1.546875 -1.359375 L 1.546875 -4.375 C 1.546875 -4.757812 1.503906 -5.035156 1.421875 -5.203125 C 1.347656 -5.367188 1.222656 -5.453125 1.046875 -5.453125 C 0.898438 -5.453125 0.691406 -5.390625 0.421875 -5.265625 L 0.40625 -5.265625 C 0.363281 -5.265625 0.328125 -5.296875 0.296875 -5.359375 C 0.273438 -5.421875 0.28125 -5.457031 0.3125 -5.46875 L 2.859375 -6.640625 L 2.90625 -6.65625 C 2.96875 -6.65625 3.023438 -6.628906 3.078125 -6.578125 C 3.128906 -6.523438 3.15625 -6.472656 3.15625 -6.421875 L 3.15625 -6.0625 C 3.132812 -5.613281 3.125 -5.0625 3.125 -4.40625 L 3.125 -1.359375 C 3.125 -0.910156 3.1875 -0.601562 3.3125 -0.4375 C 3.445312 -0.28125 3.6875 -0.203125 4.03125 -0.203125 C 4.070312 -0.203125 4.09375 -0.164062 4.09375 -0.09375 C 4.09375 -0.03125 4.070312 0 4.03125 0 C 3.738281 0 3.507812 -0.00390625 3.34375 -0.015625 L 2.34375 -0.03125 L 1.34375 -0.015625 C 1.175781 -0.00390625 0.945312 0 0.65625 0 Z M 0.65625 0 "/></g></g></g><g fill="#0a4827" fill-opacity="1"><g transform="translate(20.006252, 15.636557)"><g><path d="M 8.5625 -0.203125 C 8.59375 -0.203125 8.609375 -0.164062 8.609375 -0.09375 C 8.609375 -0.03125 8.59375 0 8.5625 0 C 8.269531 0 8.039062 -0.00390625 7.875 -0.015625 L 6.859375 -0.03125 L 5.890625 -0.015625 C 5.710938 -0.00390625 5.476562 0 5.1875 0 C 5.144531 0 5.125 -0.03125 5.125 -0.09375 C 5.125 -0.164062 5.144531 -0.203125 5.1875 -0.203125 C 5.53125 -0.203125 5.765625 -0.28125 5.890625 -0.4375 C 6.015625 -0.601562 6.078125 -0.910156 6.078125 -1.359375 L 6.078125 -3.78125 C 6.078125 -4.382812 5.96875 -4.832031 5.75 -5.125 C 5.53125 -5.414062 5.1875 -5.5625 4.71875 -5.5625 C 4.445312 -5.5625 4.164062 -5.503906 3.875 -5.390625 C 3.59375 -5.285156 3.34375 -5.140625 3.125 -4.953125 L 3.125 -1.359375 C 3.125 -0.910156 3.1875 -0.601562 3.3125 -0.4375 C 3.445312 -0.28125 3.6875 -0.203125 4.03125 -0.203125 C 4.070312 -0.203125 4.09375 -0.164062 4.09375 -0.09375 C 4.09375 -0.03125 4.070312 0 4.03125 0 C 3.738281 0 3.507812 -0.00390625 3.34375 -0.015625 L 2.34375 -0.03125 L 1.34375 -0.015625 C 1.175781 -0.00390625 0.945312 0 0.65625 0 C 0.625 0 0.609375 -0.03125 0.609375 -0.09375 C 0.609375 -0.164062 0.625 -0.203125 0.65625 -0.203125 C 1 -0.203125 1.234375 -0.28125 1.359375 -0.4375 C 1.484375 -0.601562 1.546875 -0.910156 1.546875 -1.359375 L 1.546875 -4.53125 C 1.546875 -4.875 1.503906 -5.125 1.421875 -5.28125 C 1.335938 -5.445312 1.207031 -5.53125 1.03125 -5.53125 C 0.832031 -5.53125 0.5625 -5.453125 0.21875 -5.296875 L 0.1875 -5.296875 C 0.15625 -5.296875 0.128906 -5.320312 0.109375 -5.375 C 0.0859375 -5.4375 0.09375 -5.472656 0.125 -5.484375 L 2.453125 -6.625 C 2.523438 -6.644531 2.566406 -6.65625 2.578125 -6.65625 C 2.703125 -6.65625 2.816406 -6.535156 2.921875 -6.296875 C 3.035156 -6.054688 3.101562 -5.726562 3.125 -5.3125 C 3.90625 -6.238281 4.757812 -6.703125 5.6875 -6.703125 C 6.289062 -6.703125 6.769531 -6.503906 7.125 -6.109375 C 7.476562 -5.722656 7.65625 -5.21875 7.65625 -4.59375 L 7.65625 -1.359375 C 7.65625 -0.910156 7.71875 -0.601562 7.84375 -0.4375 C 7.976562 -0.28125 8.21875 -0.203125 8.5625 -0.203125 Z M 8.5625 -0.203125 "/></g></g></g><g fill="#0a4827" fill-opacity="1"><g transform="translate(28.855514, 15.636557)"><g><path d="M 8.46875 -1.09375 C 8.5 -1.09375 8.523438 -1.0625 8.546875 -1 C 8.578125 -0.945312 8.582031 -0.914062 8.5625 -0.90625 L 6.25 0.21875 L 6.15625 0.234375 C 6.050781 0.234375 5.957031 0.128906 5.875 -0.078125 C 5.789062 -0.296875 5.738281 -0.585938 5.71875 -0.953125 C 4.882812 -0.171875 4.039062 0.21875 3.1875 0.21875 C 2.6875 0.21875 2.238281 0.0859375 1.84375 -0.171875 C 1.445312 -0.429688 1.128906 -0.804688 0.890625 -1.296875 C 0.648438 -1.796875 0.53125 -2.382812 0.53125 -3.0625 C 0.53125 -3.914062 0.726562 -4.613281 1.125 -5.15625 C 1.53125 -5.695312 2.023438 -6.09375 2.609375 -6.34375 C 3.203125 -6.59375 3.796875 -6.71875 4.390625 -6.71875 C 4.804688 -6.71875 5.242188 -6.648438 5.703125 -6.515625 L 5.703125 -9.90625 C 5.703125 -10.300781 5.664062 -10.582031 5.59375 -10.75 C 5.519531 -10.914062 5.394531 -11 5.21875 -11 C 5.070312 -11 4.863281 -10.941406 4.59375 -10.828125 L 4.578125 -10.828125 C 4.535156 -10.828125 4.5 -10.851562 4.46875 -10.90625 C 4.4375 -10.96875 4.429688 -11.003906 4.453125 -11.015625 L 6.9375 -12.1875 L 7 -12.203125 C 7.050781 -12.203125 7.109375 -12.175781 7.171875 -12.125 C 7.242188 -12.070312 7.28125 -12.023438 7.28125 -11.984375 L 7.28125 -1.953125 C 7.28125 -1.566406 7.316406 -1.296875 7.390625 -1.140625 C 7.460938 -0.984375 7.582031 -0.90625 7.75 -0.90625 C 7.894531 -0.90625 8.128906 -0.96875 8.453125 -1.09375 Z M 4.109375 -0.59375 C 4.671875 -0.59375 5.203125 -0.828125 5.703125 -1.296875 L 5.703125 -5.46875 C 5.503906 -5.75 5.273438 -5.953125 5.015625 -6.078125 C 4.765625 -6.210938 4.472656 -6.28125 4.140625 -6.28125 C 3.535156 -6.28125 3.070312 -6.066406 2.75 -5.640625 C 2.425781 -5.222656 2.265625 -4.539062 2.265625 -3.59375 C 2.265625 -2.65625 2.429688 -1.921875 2.765625 -1.390625 C 3.109375 -0.859375 3.554688 -0.59375 4.109375 -0.59375 Z M 4.109375 -0.59375 "/></g></g></g><g fill="#0a4827" fill-opacity="1"><g transform="translate(37.435594, 15.636557)"><g><path d="M 1.984375 -5.6875 C 1.984375 -5.363281 2.097656 -5.082031 2.328125 -4.84375 C 2.554688 -4.613281 2.890625 -4.367188 3.328125 -4.109375 C 3.753906 -3.859375 4.070312 -3.660156 4.28125 -3.515625 C 4.488281 -3.378906 4.675781 -3.1875 4.84375 -2.9375 C 5.007812 -2.6875 5.09375 -2.378906 5.09375 -2.015625 C 5.09375 -1.640625 5 -1.28125 4.8125 -0.9375 C 4.625 -0.601562 4.335938 -0.332031 3.953125 -0.125 C 3.566406 0.0820312 3.113281 0.1875 2.59375 0.1875 C 1.976562 0.1875 1.394531 0.0351562 0.84375 -0.265625 C 0.769531 -0.335938 0.734375 -0.40625 0.734375 -0.46875 L 0.703125 -2.140625 C 0.703125 -2.171875 0.734375 -2.1875 0.796875 -2.1875 C 0.859375 -2.195312 0.894531 -2.191406 0.90625 -2.171875 C 1.082031 -1.609375 1.378906 -1.128906 1.796875 -0.734375 C 2.210938 -0.347656 2.632812 -0.15625 3.0625 -0.15625 C 3.300781 -0.15625 3.488281 -0.226562 3.625 -0.375 C 3.769531 -0.519531 3.84375 -0.734375 3.84375 -1.015625 C 3.84375 -1.421875 3.722656 -1.742188 3.484375 -1.984375 C 3.242188 -2.234375 2.894531 -2.488281 2.4375 -2.75 C 2.039062 -2.957031 1.742188 -3.128906 1.546875 -3.265625 C 1.347656 -3.398438 1.171875 -3.585938 1.015625 -3.828125 C 0.859375 -4.078125 0.78125 -4.382812 0.78125 -4.75 C 0.78125 -5.40625 1.015625 -5.882812 1.484375 -6.1875 C 1.953125 -6.5 2.53125 -6.65625 3.21875 -6.65625 C 3.46875 -6.65625 3.695312 -6.640625 3.90625 -6.609375 C 4.113281 -6.578125 4.347656 -6.507812 4.609375 -6.40625 C 4.710938 -6.375 4.765625 -6.3125 4.765625 -6.21875 C 4.765625 -5.945312 4.757812 -5.726562 4.75 -5.5625 L 4.734375 -4.734375 C 4.734375 -4.691406 4.695312 -4.671875 4.625 -4.671875 C 4.5625 -4.671875 4.53125 -4.691406 4.53125 -4.734375 C 4.53125 -4.941406 4.4375 -5.171875 4.25 -5.421875 C 4.070312 -5.679688 3.835938 -5.898438 3.546875 -6.078125 C 3.265625 -6.253906 2.972656 -6.34375 2.671875 -6.34375 C 2.210938 -6.34375 1.984375 -6.125 1.984375 -5.6875 Z M 1.984375 -5.6875 "/></g></g></g></g></g><path stroke-linecap="butt" transform="matrix(0.263003, 0, 0, 0.263003, 34.502918, 37.799483)" fill="none" stroke-linejoin="miter" d="M 0.00375836 1.000053 L 70.879948 1.000053 " stroke="#ffffff" stroke-width="2" stroke-opacity="1" stroke-miterlimit="4"/><g clip-path="url(#298dc9e827)"><g transform="matrix(1, 0, 0, 1, 28, 43)"><g clip-path="url(#a52cab9505)"><g clip-path="url(#c99e7589b5)"><g fill="#ffffff" fill-opacity="1"><g transform="translate(0.510982, 3.973588)"><g><path d="M 2.484375 -1.484375 L 2.890625 -1.484375 L 2.890625 -0.34375 C 2.742188 -0.21875 2.570312 -0.125 2.375 -0.0625 C 2.175781 0 1.972656 0.03125 1.765625 0.03125 C 1.472656 0.03125 1.207031 -0.03125 0.96875 -0.15625 C 0.726562 -0.289062 0.539062 -0.472656 0.40625 -0.703125 C 0.269531 -0.929688 0.203125 -1.1875 0.203125 -1.46875 C 0.203125 -1.757812 0.269531 -2.019531 0.40625 -2.25 C 0.539062 -2.476562 0.726562 -2.65625 0.96875 -2.78125 C 1.207031 -2.90625 1.476562 -2.96875 1.78125 -2.96875 C 2.007812 -2.96875 2.21875 -2.929688 2.40625 -2.859375 C 2.601562 -2.785156 2.769531 -2.671875 2.90625 -2.515625 L 2.640625 -2.265625 C 2.410156 -2.492188 2.128906 -2.609375 1.796875 -2.609375 C 1.566406 -2.609375 1.363281 -2.554688 1.1875 -2.453125 C 1.007812 -2.359375 0.867188 -2.222656 0.765625 -2.046875 C 0.671875 -1.878906 0.625 -1.6875 0.625 -1.46875 C 0.625 -1.257812 0.671875 -1.066406 0.765625 -0.890625 C 0.867188 -0.722656 1.007812 -0.585938 1.1875 -0.484375 C 1.363281 -0.390625 1.566406 -0.34375 1.796875 -0.34375 C 2.054688 -0.34375 2.285156 -0.40625 2.484375 -0.53125 Z M 2.484375 -1.484375 "/></g></g></g></g><g fill="#ffffff" fill-opacity="1"><g transform="translate(3.759615, 3.973588)"><g><path d="M 0.765625 -1.859375 C 0.835938 -1.984375 0.941406 -2.078125 1.078125 -2.140625 C 1.210938 -2.210938 1.378906 -2.25 1.578125 -2.25 L 1.578125 -1.859375 C 1.554688 -1.859375 1.523438 -1.859375 1.484375 -1.859375 C 1.265625 -1.859375 1.09375 -1.789062 0.96875 -1.65625 C 0.84375 -1.53125 0.78125 -1.347656 0.78125 -1.109375 L 0.78125 0 L 0.375 0 L 0.375 -2.234375 L 0.765625 -2.234375 Z M 0.765625 -1.859375 "/></g></g></g><g fill="#ffffff" fill-opacity="1"><g transform="translate(5.484922, 3.973588)"><g><path d="M 1.34375 0.03125 C 1.113281 0.03125 0.910156 -0.015625 0.734375 -0.109375 C 0.554688 -0.210938 0.414062 -0.347656 0.3125 -0.515625 C 0.21875 -0.691406 0.171875 -0.890625 0.171875 -1.109375 C 0.171875 -1.328125 0.21875 -1.519531 0.3125 -1.6875 C 0.414062 -1.863281 0.554688 -2 0.734375 -2.09375 C 0.910156 -2.195312 1.113281 -2.25 1.34375 -2.25 C 1.5625 -2.25 1.753906 -2.195312 1.921875 -2.09375 C 2.097656 -2 2.238281 -1.863281 2.34375 -1.6875 C 2.445312 -1.519531 2.5 -1.328125 2.5 -1.109375 C 2.5 -0.890625 2.445312 -0.691406 2.34375 -0.515625 C 2.238281 -0.347656 2.097656 -0.210938 1.921875 -0.109375 C 1.753906 -0.015625 1.5625 0.03125 1.34375 0.03125 Z M 1.34375 -0.328125 C 1.476562 -0.328125 1.601562 -0.359375 1.71875 -0.421875 C 1.832031 -0.492188 1.921875 -0.585938 1.984375 -0.703125 C 2.046875 -0.816406 2.078125 -0.953125 2.078125 -1.109375 C 2.078125 -1.265625 2.046875 -1.398438 1.984375 -1.515625 C 1.921875 -1.640625 1.832031 -1.734375 1.71875 -1.796875 C 1.601562 -1.859375 1.476562 -1.890625 1.34375 -1.890625 C 1.195312 -1.890625 1.066406 -1.859375 0.953125 -1.796875 C 0.835938 -1.734375 0.742188 -1.640625 0.671875 -1.515625 C 0.609375 -1.398438 0.578125 -1.265625 0.578125 -1.109375 C 0.578125 -0.953125 0.609375 -0.816406 0.671875 -0.703125 C 0.742188 -0.585938 0.835938 -0.492188 0.953125 -0.421875 C 1.066406 -0.359375 1.195312 -0.328125 1.34375 -0.328125 Z M 1.34375 -0.328125 "/></g></g></g><g fill="#ffffff" fill-opacity="1"><g transform="translate(8.157049, 3.973588)"><g><path d="M 3.75 -2.234375 L 2.921875 0 L 2.53125 0 L 1.890625 -1.6875 L 1.234375 0 L 0.859375 0 L 0.03125 -2.234375 L 0.40625 -2.234375 L 1.0625 -0.453125 L 1.734375 -2.234375 L 2.0625 -2.234375 L 2.734375 -0.453125 L 3.390625 -2.234375 Z M 3.75 -2.234375 "/></g></g></g><g clip-path="url(#0c53a3e4cb)"><g fill="#ffffff" fill-opacity="1"><g transform="translate(11.940104, 3.973588)"><g><path d="M 0.375 -2.234375 L 0.78125 -2.234375 L 0.78125 0 L 0.375 0 Z M 0.578125 -2.65625 C 0.503906 -2.65625 0.441406 -2.679688 0.390625 -2.734375 C 0.335938 -2.785156 0.3125 -2.847656 0.3125 -2.921875 C 0.3125 -2.992188 0.335938 -3.054688 0.390625 -3.109375 C 0.441406 -3.160156 0.503906 -3.1875 0.578125 -3.1875 C 0.660156 -3.1875 0.726562 -3.160156 0.78125 -3.109375 C 0.832031 -3.054688 0.859375 -2.992188 0.859375 -2.921875 C 0.859375 -2.847656 0.832031 -2.785156 0.78125 -2.734375 C 0.726562 -2.679688 0.660156 -2.65625 0.578125 -2.65625 Z M 0.578125 -2.65625 "/></g></g></g></g><g fill="#ffffff" fill-opacity="1"><g transform="translate(13.114155, 3.973588)"><g><path d="M 1.578125 -2.25 C 1.859375 -2.25 2.082031 -2.164062 2.25 -2 C 2.414062 -1.832031 2.5 -1.59375 2.5 -1.28125 L 2.5 0 L 2.09375 0 L 2.09375 -1.234375 C 2.09375 -1.453125 2.039062 -1.613281 1.9375 -1.71875 C 1.832031 -1.832031 1.679688 -1.890625 1.484375 -1.890625 C 1.273438 -1.890625 1.101562 -1.820312 0.96875 -1.6875 C 0.84375 -1.5625 0.78125 -1.378906 0.78125 -1.140625 L 0.78125 0 L 0.375 0 L 0.375 -2.234375 L 0.765625 -2.234375 L 0.765625 -1.890625 C 0.847656 -2.003906 0.957031 -2.09375 1.09375 -2.15625 C 1.238281 -2.21875 1.398438 -2.25 1.578125 -2.25 Z M 1.578125 -2.25 "/></g></g></g><g fill="#ffffff" fill-opacity="1"><g transform="translate(15.979853, 3.973588)"><g><path d="M 2.515625 -2.234375 L 2.515625 -0.296875 C 2.515625 0.0859375 2.414062 0.375 2.21875 0.5625 C 2.03125 0.75 1.742188 0.84375 1.359375 0.84375 C 1.148438 0.84375 0.945312 0.8125 0.75 0.75 C 0.5625 0.695312 0.410156 0.617188 0.296875 0.515625 L 0.484375 0.203125 C 0.585938 0.285156 0.710938 0.351562 0.859375 0.40625 C 1.015625 0.457031 1.175781 0.484375 1.34375 0.484375 C 1.601562 0.484375 1.796875 0.421875 1.921875 0.296875 C 2.046875 0.179688 2.109375 -0.00390625 2.109375 -0.265625 L 2.109375 -0.4375 C 2.015625 -0.320312 1.894531 -0.234375 1.75 -0.171875 C 1.613281 -0.117188 1.46875 -0.09375 1.3125 -0.09375 C 1.09375 -0.09375 0.894531 -0.132812 0.71875 -0.21875 C 0.550781 -0.3125 0.414062 -0.441406 0.3125 -0.609375 C 0.21875 -0.773438 0.171875 -0.960938 0.171875 -1.171875 C 0.171875 -1.378906 0.21875 -1.566406 0.3125 -1.734375 C 0.414062 -1.898438 0.550781 -2.023438 0.71875 -2.109375 C 0.894531 -2.203125 1.09375 -2.25 1.3125 -2.25 C 1.476562 -2.25 1.632812 -2.21875 1.78125 -2.15625 C 1.925781 -2.09375 2.039062 -2.003906 2.125 -1.890625 L 2.125 -2.234375 Z M 1.359375 -0.453125 C 1.503906 -0.453125 1.632812 -0.476562 1.75 -0.53125 C 1.863281 -0.59375 1.953125 -0.679688 2.015625 -0.796875 C 2.085938 -0.910156 2.125 -1.035156 2.125 -1.171875 C 2.125 -1.390625 2.050781 -1.5625 1.90625 -1.6875 C 1.757812 -1.820312 1.578125 -1.890625 1.359375 -1.890625 C 1.128906 -1.890625 0.941406 -1.820312 0.796875 -1.6875 C 0.648438 -1.5625 0.578125 -1.390625 0.578125 -1.171875 C 0.578125 -1.035156 0.609375 -0.910156 0.671875 -0.796875 C 0.742188 -0.679688 0.835938 -0.59375 0.953125 -0.53125 C 1.066406 -0.476562 1.203125 -0.453125 1.359375 -0.453125 Z M 1.359375 -0.453125 "/></g></g></g><g fill="#ffffff" fill-opacity="1"><g transform="translate(18.883423, 3.973588)"><g/></g></g><g fill="#ffffff" fill-opacity="1"><g transform="translate(20.015396, 3.973588)"><g><path d="M 3.171875 0 L 3.171875 -2.140625 L 2.09375 -0.359375 L 1.90625 -0.359375 L 0.84375 -2.125 L 0.84375 0 L 0.4375 0 L 0.4375 -2.9375 L 0.78125 -2.9375 L 2.015625 -0.875 L 3.21875 -2.9375 L 3.5625 -2.9375 L 3.578125 0 Z M 3.171875 0 "/></g></g></g><g clip-path="url(#9949da7ca3)"><g fill="#ffffff" fill-opacity="1"><g transform="translate(24.034105, 3.973588)"><g><path d="M 0.375 -2.234375 L 0.78125 -2.234375 L 0.78125 0 L 0.375 0 Z M 0.578125 -2.65625 C 0.503906 -2.65625 0.441406 -2.679688 0.390625 -2.734375 C 0.335938 -2.785156 0.3125 -2.847656 0.3125 -2.921875 C 0.3125 -2.992188 0.335938 -3.054688 0.390625 -3.109375 C 0.441406 -3.160156 0.503906 -3.1875 0.578125 -3.1875 C 0.660156 -3.1875 0.726562 -3.160156 0.78125 -3.109375 C 0.832031 -3.054688 0.859375 -2.992188 0.859375 -2.921875 C 0.859375 -2.847656 0.832031 -2.785156 0.78125 -2.734375 C 0.726562 -2.679688 0.660156 -2.65625 0.578125 -2.65625 Z M 0.578125 -2.65625 "/></g></g></g></g><g fill="#ffffff" fill-opacity="1"><g transform="translate(25.208157, 3.973588)"><g><path d="M 1.578125 -2.25 C 1.859375 -2.25 2.082031 -2.164062 2.25 -2 C 2.414062 -1.832031 2.5 -1.59375 2.5 -1.28125 L 2.5 0 L 2.09375 0 L 2.09375 -1.234375 C 2.09375 -1.453125 2.039062 -1.613281 1.9375 -1.71875 C 1.832031 -1.832031 1.679688 -1.890625 1.484375 -1.890625 C 1.273438 -1.890625 1.101562 -1.820312 0.96875 -1.6875 C 0.84375 -1.5625 0.78125 -1.378906 0.78125 -1.140625 L 0.78125 0 L 0.375 0 L 0.375 -2.234375 L 0.765625 -2.234375 L 0.765625 -1.890625 C 0.847656 -2.003906 0.957031 -2.09375 1.09375 -2.15625 C 1.238281 -2.21875 1.398438 -2.25 1.578125 -2.25 Z M 1.578125 -2.25 "/></g></g></g><g clip-path="url(#21ceb9046a)"><g fill="#ffffff" fill-opacity="1"><g transform="translate(28.073854, 3.973588)"><g><path d="M 2.484375 -3.125 L 2.484375 0 L 2.09375 0 L 2.09375 -0.359375 C 2.007812 -0.234375 1.894531 -0.132812 1.75 -0.0625 C 1.613281 0 1.460938 0.03125 1.296875 0.03125 C 1.085938 0.03125 0.894531 -0.015625 0.71875 -0.109375 C 0.550781 -0.210938 0.414062 -0.347656 0.3125 -0.515625 C 0.21875 -0.691406 0.171875 -0.890625 0.171875 -1.109375 C 0.171875 -1.335938 0.21875 -1.535156 0.3125 -1.703125 C 0.414062 -1.878906 0.550781 -2.015625 0.71875 -2.109375 C 0.894531 -2.203125 1.085938 -2.25 1.296875 -2.25 C 1.460938 -2.25 1.613281 -2.21875 1.75 -2.15625 C 1.882812 -2.09375 1.992188 -2.003906 2.078125 -1.890625 L 2.078125 -3.125 Z M 1.34375 -0.328125 C 1.476562 -0.328125 1.601562 -0.359375 1.71875 -0.421875 C 1.832031 -0.492188 1.921875 -0.585938 1.984375 -0.703125 C 2.046875 -0.816406 2.078125 -0.953125 2.078125 -1.109375 C 2.078125 -1.265625 2.046875 -1.398438 1.984375 -1.515625 C 1.921875 -1.640625 1.832031 -1.734375 1.71875 -1.796875 C 1.601562 -1.859375 1.476562 -1.890625 1.34375 -1.890625 C 1.195312 -1.890625 1.066406 -1.859375 0.953125 -1.796875 C 0.835938 -1.734375 0.742188 -1.640625 0.671875 -1.515625 C 0.609375 -1.398438 0.578125 -1.265625 0.578125 -1.109375 C 0.578125 -0.953125 0.609375 -0.816406 0.671875 -0.703125 C 0.742188 -0.585938 0.835938 -0.492188 0.953125 -0.421875 C 1.066406 -0.359375 1.195312 -0.328125 1.34375 -0.328125 Z M 1.34375 -0.328125 "/></g></g></g></g><g fill="#ffffff" fill-opacity="1"><g transform="translate(30.943757, 3.973588)"><g><path d="M 1.015625 0.03125 C 0.835938 0.03125 0.664062 0.00390625 0.5 -0.046875 C 0.332031 -0.0976562 0.195312 -0.160156 0.09375 -0.234375 L 0.265625 -0.5625 C 0.367188 -0.488281 0.488281 -0.429688 0.625 -0.390625 C 0.769531 -0.347656 0.910156 -0.328125 1.046875 -0.328125 C 1.398438 -0.328125 1.578125 -0.425781 1.578125 -0.625 C 1.578125 -0.695312 1.550781 -0.75 1.5 -0.78125 C 1.457031 -0.820312 1.398438 -0.851562 1.328125 -0.875 C 1.253906 -0.894531 1.15625 -0.914062 1.03125 -0.9375 C 0.84375 -0.957031 0.691406 -0.984375 0.578125 -1.015625 C 0.472656 -1.054688 0.378906 -1.117188 0.296875 -1.203125 C 0.210938 -1.296875 0.171875 -1.421875 0.171875 -1.578125 C 0.171875 -1.785156 0.253906 -1.945312 0.421875 -2.0625 C 0.585938 -2.1875 0.8125 -2.25 1.09375 -2.25 C 1.25 -2.25 1.398438 -2.226562 1.546875 -2.1875 C 1.691406 -2.15625 1.8125 -2.109375 1.90625 -2.046875 L 1.734375 -1.734375 C 1.554688 -1.847656 1.34375 -1.90625 1.09375 -1.90625 C 0.925781 -1.90625 0.796875 -1.875 0.703125 -1.8125 C 0.617188 -1.757812 0.578125 -1.6875 0.578125 -1.59375 C 0.578125 -1.519531 0.597656 -1.460938 0.640625 -1.421875 C 0.691406 -1.378906 0.753906 -1.347656 0.828125 -1.328125 C 0.910156 -1.304688 1.015625 -1.285156 1.140625 -1.265625 C 1.328125 -1.234375 1.472656 -1.195312 1.578125 -1.15625 C 1.691406 -1.125 1.785156 -1.066406 1.859375 -0.984375 C 1.941406 -0.898438 1.984375 -0.785156 1.984375 -0.640625 C 1.984375 -0.429688 1.894531 -0.265625 1.71875 -0.140625 C 1.550781 -0.0234375 1.316406 0.03125 1.015625 0.03125 Z M 1.015625 0.03125 "/></g></g></g><g fill="#ffffff" fill-opacity="1"><g transform="translate(33.052, 3.973588)"><g><path d="M 0.484375 -0.546875 C 0.554688 -0.546875 0.617188 -0.519531 0.671875 -0.46875 C 0.722656 -0.414062 0.75 -0.347656 0.75 -0.265625 C 0.75 -0.222656 0.742188 -0.179688 0.734375 -0.140625 C 0.734375 -0.0976562 0.71875 -0.0390625 0.6875 0.03125 L 0.484375 0.625 L 0.21875 0.625 L 0.375 0 C 0.320312 -0.0195312 0.28125 -0.0507812 0.25 -0.09375 C 0.21875 -0.144531 0.203125 -0.203125 0.203125 -0.265625 C 0.203125 -0.347656 0.226562 -0.414062 0.28125 -0.46875 C 0.332031 -0.519531 0.398438 -0.546875 0.484375 -0.546875 Z M 0.484375 -0.546875 "/></g></g></g><g fill="#ffffff" fill-opacity="1"><g transform="translate(34.007231, 3.973588)"><g/></g></g><g fill="#ffffff" fill-opacity="1"><g transform="translate(35.139204, 3.973588)"><g><path d="M 2.96875 -2.9375 L 2.96875 0 L 2.546875 0 L 2.546875 -1.3125 L 0.859375 -1.3125 L 0.859375 0 L 0.4375 0 L 0.4375 -2.9375 L 0.859375 -2.9375 L 0.859375 -1.671875 L 2.546875 -1.671875 L 2.546875 -2.9375 Z M 2.96875 -2.9375 "/></g></g></g><g fill="#ffffff" fill-opacity="1"><g transform="translate(38.556157, 3.973588)"><g><path d="M 2.390625 -1.09375 C 2.390625 -1.070312 2.390625 -1.035156 2.390625 -0.984375 L 0.578125 -0.984375 C 0.609375 -0.785156 0.695312 -0.625 0.84375 -0.5 C 0.988281 -0.382812 1.171875 -0.328125 1.390625 -0.328125 C 1.648438 -0.328125 1.863281 -0.414062 2.03125 -0.59375 L 2.25 -0.34375 C 2.144531 -0.21875 2.019531 -0.125 1.875 -0.0625 C 1.726562 0 1.5625 0.03125 1.375 0.03125 C 1.132812 0.03125 0.921875 -0.015625 0.734375 -0.109375 C 0.554688 -0.210938 0.414062 -0.347656 0.3125 -0.515625 C 0.21875 -0.691406 0.171875 -0.890625 0.171875 -1.109375 C 0.171875 -1.328125 0.21875 -1.519531 0.3125 -1.6875 C 0.414062 -1.863281 0.550781 -2 0.71875 -2.09375 C 0.882812 -2.195312 1.078125 -2.25 1.296875 -2.25 C 1.503906 -2.25 1.691406 -2.195312 1.859375 -2.09375 C 2.023438 -2 2.15625 -1.863281 2.25 -1.6875 C 2.34375 -1.519531 2.390625 -1.320312 2.390625 -1.09375 Z M 1.296875 -1.90625 C 1.097656 -1.90625 0.929688 -1.847656 0.796875 -1.734375 C 0.671875 -1.617188 0.597656 -1.460938 0.578125 -1.265625 L 2.015625 -1.265625 C 1.984375 -1.453125 1.898438 -1.601562 1.765625 -1.71875 C 1.640625 -1.84375 1.484375 -1.90625 1.296875 -1.90625 Z M 1.296875 -1.90625 "/></g></g></g><g fill="#ffffff" fill-opacity="1"><g transform="translate(41.131498, 3.973588)"><g><path d="M 1.1875 -2.25 C 1.5 -2.25 1.734375 -2.171875 1.890625 -2.015625 C 2.054688 -1.867188 2.140625 -1.644531 2.140625 -1.34375 L 2.140625 0 L 1.765625 0 L 1.765625 -0.296875 C 1.703125 -0.191406 1.609375 -0.109375 1.484375 -0.046875 C 1.359375 0.00390625 1.207031 0.03125 1.03125 0.03125 C 0.78125 0.03125 0.578125 -0.03125 0.421875 -0.15625 C 0.273438 -0.28125 0.203125 -0.4375 0.203125 -0.625 C 0.203125 -0.820312 0.273438 -0.976562 0.421875 -1.09375 C 0.566406 -1.21875 0.796875 -1.28125 1.109375 -1.28125 L 1.75 -1.28125 L 1.75 -1.359375 C 1.75 -1.535156 1.695312 -1.671875 1.59375 -1.765625 C 1.488281 -1.859375 1.335938 -1.90625 1.140625 -1.90625 C 1.015625 -1.90625 0.890625 -1.878906 0.765625 -1.828125 C 0.640625 -1.785156 0.53125 -1.726562 0.4375 -1.65625 L 0.265625 -1.96875 C 0.390625 -2.050781 0.53125 -2.117188 0.6875 -2.171875 C 0.84375 -2.222656 1.007812 -2.25 1.1875 -2.25 Z M 1.09375 -0.28125 C 1.25 -0.28125 1.382812 -0.3125 1.5 -0.375 C 1.613281 -0.445312 1.695312 -0.550781 1.75 -0.6875 L 1.75 -0.984375 L 1.125 -0.984375 C 0.78125 -0.984375 0.609375 -0.867188 0.609375 -0.640625 C 0.609375 -0.535156 0.648438 -0.445312 0.734375 -0.375 C 0.828125 -0.3125 0.945312 -0.28125 1.09375 -0.28125 Z M 1.09375 -0.28125 "/></g></g></g><g clip-path="url(#0e84ab3624)"><g fill="#ffffff" fill-opacity="1"><g transform="translate(43.647927, 3.973588)"><g><path d="M 0.375 -3.125 L 0.78125 -3.125 L 0.78125 0 L 0.375 0 Z M 0.375 -3.125 "/></g></g></g></g><g clip-path="url(#e952c66196)"><g fill="#ffffff" fill-opacity="1"><g transform="translate(44.821979, 3.973588)"><g><path d="M 0.375 -2.234375 L 0.78125 -2.234375 L 0.78125 0 L 0.375 0 Z M 0.578125 -2.65625 C 0.503906 -2.65625 0.441406 -2.679688 0.390625 -2.734375 C 0.335938 -2.785156 0.3125 -2.847656 0.3125 -2.921875 C 0.3125 -2.992188 0.335938 -3.054688 0.390625 -3.109375 C 0.441406 -3.160156 0.503906 -3.1875 0.578125 -3.1875 C 0.660156 -3.1875 0.726562 -3.160156 0.78125 -3.109375 C 0.832031 -3.054688 0.859375 -2.992188 0.859375 -2.921875 C 0.859375 -2.847656 0.832031 -2.785156 0.78125 -2.734375 C 0.726562 -2.679688 0.660156 -2.65625 0.578125 -2.65625 Z M 0.578125 -2.65625 "/></g></g></g></g><g fill="#ffffff" fill-opacity="1"><g transform="translate(45.996031, 3.973588)"><g><path d="M 1.578125 -2.25 C 1.859375 -2.25 2.082031 -2.164062 2.25 -2 C 2.414062 -1.832031 2.5 -1.59375 2.5 -1.28125 L 2.5 0 L 2.09375 0 L 2.09375 -1.234375 C 2.09375 -1.453125 2.039062 -1.613281 1.9375 -1.71875 C 1.832031 -1.832031 1.679688 -1.890625 1.484375 -1.890625 C 1.273438 -1.890625 1.101562 -1.820312 0.96875 -1.6875 C 0.84375 -1.5625 0.78125 -1.378906 0.78125 -1.140625 L 0.78125 0 L 0.375 0 L 0.375 -2.234375 L 0.765625 -2.234375 L 0.765625 -1.890625 C 0.847656 -2.003906 0.957031 -2.09375 1.09375 -2.15625 C 1.238281 -2.21875 1.398438 -2.25 1.578125 -2.25 Z M 1.578125 -2.25 "/></g></g></g><g fill="#ffffff" fill-opacity="1"><g transform="translate(48.861728, 3.973588)"><g><path d="M 2.515625 -2.234375 L 2.515625 -0.296875 C 2.515625 0.0859375 2.414062 0.375 2.21875 0.5625 C 2.03125 0.75 1.742188 0.84375 1.359375 0.84375 C 1.148438 0.84375 0.945312 0.8125 0.75 0.75 C 0.5625 0.695312 0.410156 0.617188 0.296875 0.515625 L 0.484375 0.203125 C 0.585938 0.285156 0.710938 0.351562 0.859375 0.40625 C 1.015625 0.457031 1.175781 0.484375 1.34375 0.484375 C 1.601562 0.484375 1.796875 0.421875 1.921875 0.296875 C 2.046875 0.179688 2.109375 -0.00390625 2.109375 -0.265625 L 2.109375 -0.4375 C 2.015625 -0.320312 1.894531 -0.234375 1.75 -0.171875 C 1.613281 -0.117188 1.46875 -0.09375 1.3125 -0.09375 C 1.09375 -0.09375 0.894531 -0.132812 0.71875 -0.21875 C 0.550781 -0.3125 0.414062 -0.441406 0.3125 -0.609375 C 0.21875 -0.773438 0.171875 -0.960938 0.171875 -1.171875 C 0.171875 -1.378906 0.21875 -1.566406 0.3125 -1.734375 C 0.414062 -1.898438 0.550781 -2.023438 0.71875 -2.109375 C 0.894531 -2.203125 1.09375 -2.25 1.3125 -2.25 C 1.476562 -2.25 1.632812 -2.21875 1.78125 -2.15625 C 1.925781 -2.09375 2.039062 -2.003906 2.125 -1.890625 L 2.125 -2.234375 Z M 1.359375 -0.453125 C 1.503906 -0.453125 1.632812 -0.476562 1.75 -0.53125 C 1.863281 -0.59375 1.953125 -0.679688 2.015625 -0.796875 C 2.085938 -0.910156 2.125 -1.035156 2.125 -1.171875 C 2.125 -1.390625 2.050781 -1.5625 1.90625 -1.6875 C 1.757812 -1.820312 1.578125 -1.890625 1.359375 -1.890625 C 1.128906 -1.890625 0.941406 -1.820312 0.796875 -1.6875 C 0.648438 -1.5625 0.578125 -1.390625 0.578125 -1.171875 C 0.578125 -1.035156 0.609375 -0.910156 0.671875 -0.796875 C 0.742188 -0.679688 0.835938 -0.59375 0.953125 -0.53125 C 1.066406 -0.476562 1.203125 -0.453125 1.359375 -0.453125 Z M 1.359375 -0.453125 "/></g></g></g><g fill="#ffffff" fill-opacity="1"><g transform="translate(51.765298, 3.973588)"><g/></g></g><g fill="#ffffff" fill-opacity="1"><g transform="translate(52.897271, 3.973588)"><g><path d="M 0.4375 -2.9375 L 0.859375 -2.9375 L 0.859375 -0.359375 L 2.453125 -0.359375 L 2.453125 0 L 0.4375 0 Z M 0.4375 -2.9375 "/></g></g></g><g clip-path="url(#517ab3eecb)"><g fill="#ffffff" fill-opacity="1"><g transform="translate(55.396866, 3.973588)"><g><path d="M 0.375 -2.234375 L 0.78125 -2.234375 L 0.78125 0 L 0.375 0 Z M 0.578125 -2.65625 C 0.503906 -2.65625 0.441406 -2.679688 0.390625 -2.734375 C 0.335938 -2.785156 0.3125 -2.847656 0.3125 -2.921875 C 0.3125 -2.992188 0.335938 -3.054688 0.390625 -3.109375 C 0.441406 -3.160156 0.503906 -3.1875 0.578125 -3.1875 C 0.660156 -3.1875 0.726562 -3.160156 0.78125 -3.109375 C 0.832031 -3.054688 0.859375 -2.992188 0.859375 -2.921875 C 0.859375 -2.847656 0.832031 -2.785156 0.78125 -2.734375 C 0.726562 -2.679688 0.660156 -2.65625 0.578125 -2.65625 Z M 0.578125 -2.65625 "/></g></g></g></g><g fill="#ffffff" fill-opacity="1"><g transform="translate(56.570918, 3.973588)"><g><path d="M 2.359375 -2.234375 L 1.375 0 L 0.96875 0 L -0.015625 -2.234375 L 0.40625 -2.234375 L 1.171875 -0.4375 L 1.953125 -2.234375 Z M 2.359375 -2.234375 "/></g></g></g><g fill="#ffffff" fill-opacity="1"><g transform="translate(58.923233, 3.973588)"><g><path d="M 2.390625 -1.09375 C 2.390625 -1.070312 2.390625 -1.035156 2.390625 -0.984375 L 0.578125 -0.984375 C 0.609375 -0.785156 0.695312 -0.625 0.84375 -0.5 C 0.988281 -0.382812 1.171875 -0.328125 1.390625 -0.328125 C 1.648438 -0.328125 1.863281 -0.414062 2.03125 -0.59375 L 2.25 -0.34375 C 2.144531 -0.21875 2.019531 -0.125 1.875 -0.0625 C 1.726562 0 1.5625 0.03125 1.375 0.03125 C 1.132812 0.03125 0.921875 -0.015625 0.734375 -0.109375 C 0.554688 -0.210938 0.414062 -0.347656 0.3125 -0.515625 C 0.21875 -0.691406 0.171875 -0.890625 0.171875 -1.109375 C 0.171875 -1.328125 0.21875 -1.519531 0.3125 -1.6875 C 0.414062 -1.863281 0.550781 -2 0.71875 -2.09375 C 0.882812 -2.195312 1.078125 -2.25 1.296875 -2.25 C 1.503906 -2.25 1.691406 -2.195312 1.859375 -2.09375 C 2.023438 -2 2.15625 -1.863281 2.25 -1.6875 C 2.34375 -1.519531 2.390625 -1.320312 2.390625 -1.09375 Z M 1.296875 -1.90625 C 1.097656 -1.90625 0.929688 -1.847656 0.796875 -1.734375 C 0.671875 -1.617188 0.597656 -1.460938 0.578125 -1.265625 L 2.015625 -1.265625 C 1.984375 -1.453125 1.898438 -1.601562 1.765625 -1.71875 C 1.640625 -1.84375 1.484375 -1.90625 1.296875 -1.90625 Z M 1.296875 -1.90625 "/></g></g></g><g clip-path="url(#26f0a3bb0c)"><g fill="#ffffff" fill-opacity="1"><g transform="translate(61.498574, 3.973588)"><g><path d="M 1.015625 0.03125 C 0.835938 0.03125 0.664062 0.00390625 0.5 -0.046875 C 0.332031 -0.0976562 0.195312 -0.160156 0.09375 -0.234375 L 0.265625 -0.5625 C 0.367188 -0.488281 0.488281 -0.429688 0.625 -0.390625 C 0.769531 -0.347656 0.910156 -0.328125 1.046875 -0.328125 C 1.398438 -0.328125 1.578125 -0.425781 1.578125 -0.625 C 1.578125 -0.695312 1.550781 -0.75 1.5 -0.78125 C 1.457031 -0.820312 1.398438 -0.851562 1.328125 -0.875 C 1.253906 -0.894531 1.15625 -0.914062 1.03125 -0.9375 C 0.84375 -0.957031 0.691406 -0.984375 0.578125 -1.015625 C 0.472656 -1.054688 0.378906 -1.117188 0.296875 -1.203125 C 0.210938 -1.296875 0.171875 -1.421875 0.171875 -1.578125 C 0.171875 -1.785156 0.253906 -1.945312 0.421875 -2.0625 C 0.585938 -2.1875 0.8125 -2.25 1.09375 -2.25 C 1.25 -2.25 1.398438 -2.226562 1.546875 -2.1875 C 1.691406 -2.15625 1.8125 -2.109375 1.90625 -2.046875 L 1.734375 -1.734375 C 1.554688 -1.847656 1.34375 -1.90625 1.09375 -1.90625 C 0.925781 -1.90625 0.796875 -1.875 0.703125 -1.8125 C 0.617188 -1.757812 0.578125 -1.6875 0.578125 -1.59375 C 0.578125 -1.519531 0.597656 -1.460938 0.640625 -1.421875 C 0.691406 -1.378906 0.753906 -1.347656 0.828125 -1.328125 C 0.910156 -1.304688 1.015625 -1.285156 1.140625 -1.265625 C 1.328125 -1.234375 1.472656 -1.195312 1.578125 -1.15625 C 1.691406 -1.125 1.785156 -1.066406 1.859375 -0.984375 C 1.941406 -0.898438 1.984375 -0.785156 1.984375 -0.640625 C 1.984375 -0.429688 1.894531 -0.265625 1.71875 -0.140625 C 1.550781 -0.0234375 1.316406 0.03125 1.015625 0.03125 Z M 1.015625 0.03125 "/></g></g></g></g></g></g></g></g></g></svg>